<svg data-v-0dd9719b="" version="1.0" xmlns="http://www.w3.org/2000/svg" xmlns:xlink="http://www.w3.org/1999/xlink" width="100%" height="100%" viewBox="0 0 340.000000 250.000000" preserveAspectRatio="xMidYMid meet" color-interpolation-filters="sRGB" style="margin: auto;"> <rect data-v-0dd9719b="" x="0" y="0" width="100%" height="100%" fill="#fff" fill-opacity="1" class="background"></rect> <rect data-v-0dd9719b="" x="0" y="0" width="100%" height="100%" fill="url(#watermark)" fill-opacity="1" class="watermarklayer"></rect> <g data-v-0dd9719b="" fill="#333" class="icon-text-wrapper icon-svg-group iconsvg" transform="translate(46.91999816894531,95.00389671437472)"><g class="iconsvg-imagesvg" transform="translate(0,0)"><g><rect fill="#333" fill-opacity="0" stroke-width="2" x="0" y="0" width="60" height="59.9922010138682" class="image-rect"></rect> <svg x="0" y="0" width="60" height="59.9922010138682" filtersec="colorsb7221655869" class="image-svg-svg primary" style="overflow: visible;"><svg xmlns="http://www.w3.org/2000/svg" viewBox="-0.025064129382371902 0.02431926503777504 99.97372436523438 99.96115112304688"><path d="M92.11 7.56a14.27 14.27 0 0 0-24.36 10.7A17.91 17.91 0 0 1 49.27 35.5a14.42 14.42 0 0 0-13.77 15A17.89 17.89 0 0 1 17 67.72a14.29 14.29 0 1 0 14.9 14.93 17.87 17.87 0 0 1 17.7-18.48h.8a14.23 14.23 0 0 0 7-2.2 13.93 13.93 0 0 0 2.6-2.09 14.23 14.23 0 0 0 4.15-9.45A17.87 17.87 0 0 1 81.86 32h.5a2.8 2.8 0 0 0 .29 0 14.27 14.27 0 0 0 9.46-24.44z" fill="#004e9a"></path><path d="M75.59 43.5a14.22 14.22 0 0 0-4.15 10.7A17.93 17.93 0 0 1 53 71.44a14.28 14.28 0 1 0 14.91 14.9 17.86 17.86 0 0 1 17.65-18.46h.79A14.28 14.28 0 1 0 75.59 43.5zM36.28 4.19a14.22 14.22 0 0 0-4.15 10.7 17.91 17.91 0 0 1-18.48 17.23 14.29 14.29 0 1 0 14.89 14.93 17.87 17.87 0 0 1 17.7-18.48H47A14.28 14.28 0 1 0 36.28 4.19z" fill="#27b4d4"></path><path d="M20.9 20.91a9.91 9.91 0 1 1 0-14 9.9 9.9 0 0 1 0 14zM93.21 93.21a9.91 9.91 0 1 1 0-14 9.9 9.9 0 0 1 0 14z" fill="#004e9a"></path></svg></svg> <!----></g></g> <g transform="translate(67,20.41110324859619)"><g data-gra="path-name" fill-rule="" class="tp-name iconsvg-namesvg"><g transform="scale(1)"><g><path d="M17.66-18.44L17.66-18.44 17.66-17.92Q17.09-17.71 16.45-17.01 15.81-16.31 15.26-14.82L15.26-14.82 9.77 0.05Q9.56 0.03 9.33 0.03 9.09 0.03 8.86 0.03L8.86 0.03Q8.65 0.03 8.41 0.03 8.18 0.03 7.97 0.05L7.97 0.05 1.33-16.25Q0.96-17.19 0.52-17.54 0.08-17.9-0.31-17.92L-0.31-17.92-0.31-18.44Q0.47-18.42 1.52-18.39 2.58-18.36 3.65-18.36L3.65-18.36Q4.85-18.36 5.9-18.39 6.96-18.42 7.61-18.44L7.61-18.44 7.61-17.92Q6.33-17.87 5.94-17.49 5.55-17.11 6.1-15.73L6.1-15.73 10.84-3.67 10.29-3.02 13.88-12.71Q14.59-14.67 14.61-15.79 14.64-16.91 14.07-17.4 13.49-17.9 12.43-17.92L12.43-17.92 12.43-18.44Q13.31-18.42 14.09-18.39 14.87-18.36 15.68-18.36L15.68-18.36Q16.25-18.36 16.76-18.39 17.27-18.42 17.66-18.44ZM27.09-18.81L27.09-18.81Q29.85-18.81 31.92-17.69 33.99-16.57 35.14-14.47 36.29-12.37 36.29-9.38L36.29-9.38Q36.29-6.46 35.11-4.27 33.94-2.08 31.85-0.86 29.75 0.36 27.07 0.36L27.07 0.36Q24.3 0.36 22.23-0.76 20.16-1.88 19.02-3.99 17.87-6.1 17.87-9.07L17.87-9.07Q17.87-11.98 19.05-14.17 20.24-16.36 22.31-17.58 24.38-18.81 27.09-18.81ZM26.99-18.34L26.99-18.34Q25.53-18.34 24.45-17.17 23.37-15.99 22.78-13.94 22.19-11.88 22.19-9.17L22.19-9.17Q22.19-6.41 22.86-4.36 23.52-2.32 24.66-1.21 25.79-0.1 27.17-0.1L27.17-0.1Q28.63-0.1 29.71-1.28 30.79-2.45 31.38-4.52 31.96-6.59 31.96-9.27L31.96-9.27Q31.96-12.06 31.3-14.09 30.63-16.12 29.5-17.23 28.37-18.34 26.99-18.34ZM44.39-18.47L44.39-18.47 44.39-17.92Q43.22-17.92 42.89-17.7 42.56-17.48 42.93-16.93L42.93-16.93 53.24-1.85Q53.77-1.12 54.08-0.86 54.39-0.6 54.91-0.55L54.91-0.55 54.91 0Q54.39-0.03 53.4-0.07 52.41-0.1 51.34-0.1L51.34-0.1Q50.17-0.1 48.96-0.07 47.75-0.03 47.15 0L47.15 0 47.15-0.55Q48.35-0.55 48.7-0.72 49.05-0.89 48.69-1.43L48.69-1.43 38.34-16.62Q37.85-17.37 37.54-17.64 37.22-17.9 36.68-17.92L36.68-17.92 36.68-18.47Q37.22-18.44 38.28-18.4 39.33-18.36 40.4-18.36L40.4-18.36Q41.57-18.36 42.66-18.4 43.74-18.44 44.39-18.47ZM40.51-3.7L44.62-9.27Q44.62-9.27 44.73-8.93 44.83-8.6 44.83-8.6L44.83-8.6 42.23-5.03Q41.18-3.62 41.05-2.64 40.92-1.67 41.51-1.13 42.1-0.6 43.24-0.52L43.24-0.52 43.24 0Q42.75-0.03 41.94-0.04 41.13-0.05 40.35-0.07 39.57-0.08 39.13-0.08L39.13-0.08Q37.56-0.08 36.73 0L36.73 0 36.73-0.52Q37.64-0.83 38.58-1.63 39.52-2.42 40.51-3.7L40.51-3.7ZM53.74-18.44L53.74-18.44 53.74-17.92Q52.88-17.69 52.03-16.93 51.19-16.18 50.46-15.19L50.46-15.19 46.24-9.56Q46.24-9.56 46.15-9.9 46.05-10.24 46.05-10.24L46.05-10.24 48.74-13.86Q50.22-15.76 49.94-16.8 49.65-17.84 48.06-17.92L48.06-17.92 48.06-18.44Q48.82-18.42 49.75-18.39 50.69-18.36 51.34-18.36L51.34-18.36Q52.91-18.36 53.74-18.44ZM69.42-18.44L69.42-18.44Q69.32-17.3 69.28-16.23 69.24-15.16 69.24-14.59L69.24-14.59Q69.24-14.07 69.26-13.6 69.29-13.13 69.32-12.82L69.32-12.82 68.72-12.82Q68.46-14.72 67.91-15.82 67.36-16.93 66.49-17.39 65.62-17.84 64.45-17.84L64.45-17.84 63.38-17.84Q62.6-17.84 62.22-17.71 61.84-17.58 61.71-17.21 61.58-16.83 61.58-15.99L61.58-15.99 61.58-2.45Q61.58-1.64 61.71-1.25 61.84-0.86 62.22-0.73 62.6-0.6 63.38-0.6L63.38-0.6 64.65-0.6Q65.83-0.6 66.73-1.11 67.62-1.62 68.26-2.84 68.9-4.06 69.24-6.15L69.24-6.15 69.84-6.15Q69.76-5.31 69.76-3.96L69.76-3.96Q69.76-3.36 69.79-2.27 69.81-1.17 69.94 0L69.94 0Q68.61-0.05 66.95-0.07 65.28-0.08 63.98-0.08L63.98-0.08Q63.09-0.08 61.63-0.08 60.17-0.08 58.53-0.07 56.89-0.05 55.48 0L55.48 0 55.48-0.52Q56.32-0.57 56.74-0.73 57.15-0.89 57.3-1.35 57.44-1.82 57.44-2.76L57.44-2.76 57.44-15.68Q57.44-16.65 57.3-17.1 57.15-17.56 56.72-17.73 56.29-17.9 55.48-17.92L55.48-17.92 55.48-18.44Q56.89-18.42 58.53-18.39 60.17-18.36 61.63-18.36 63.09-18.36 63.98-18.36L63.98-18.36Q65.18-18.36 66.7-18.38 68.22-18.39 69.42-18.44ZM60.8-9.53L65.36-9.53Q65.36-9.53 65.36-9.27 65.36-9.01 65.36-9.01L65.36-9.01 60.8-9.01Q60.8-9.01 60.8-9.27 60.8-9.53 60.8-9.53L60.8-9.53ZM65.51-12.97L66.11-12.97Q66.01-11.49 66.02-10.71 66.03-9.92 66.03-9.27L66.03-9.27Q66.03-8.62 66.06-7.84 66.09-7.06 66.19-5.57L66.19-5.57 65.59-5.57Q65.46-6.49 65.11-7.27 64.76-8.05 64.11-8.53 63.46-9.01 62.41-9.01L62.41-9.01 62.41-9.53Q63.46-9.53 64.08-10.11 64.71-10.68 65.04-11.47 65.38-12.27 65.51-12.97L65.51-12.97ZM80.21-18.44L80.21-18.44 80.21-17.92Q79.32-17.9 78.86-17.73 78.41-17.56 78.25-17.1 78.1-16.65 78.1-15.68L78.1-15.68 78.1-2.45Q78.1-1.64 78.21-1.25 78.33-0.86 78.68-0.73 79.03-0.6 79.74-0.6L79.74-0.6 81.01-0.6Q82.21-0.6 83.19-1.33 84.16-2.06 84.83-3.37 85.49-4.69 85.75-6.41L85.75-6.41 86.35-6.41Q86.27-5.52 86.27-4.12L86.27-4.12Q86.27-3.52 86.3-2.37 86.33-1.22 86.46 0L86.46 0Q85.13-0.05 83.46-0.07 81.79-0.08 80.49-0.08L80.49-0.08Q79.61-0.08 78.15-0.08 76.69-0.08 75.05-0.07 73.41-0.05 72 0L72 0 72-0.52Q72.83-0.57 73.25-0.73 73.67-0.89 73.81-1.35 73.95-1.82 73.95-2.76L73.95-2.76 73.95-15.68Q73.95-16.65 73.81-17.1 73.67-17.56 73.24-17.73 72.81-17.9 72-17.92L72-17.92 72-18.44Q72.65-18.42 73.76-18.39 74.87-18.36 76.12-18.36L76.12-18.36Q77.26-18.36 78.37-18.39 79.48-18.42 80.21-18.44ZM97.37-18.81L97.37-18.81Q99.09-18.81 100.2-18.3 101.31-17.79 102.16-17.11L102.16-17.11Q102.69-16.72 102.96-17.02 103.23-17.32 103.34-18.44L103.34-18.44 103.94-18.44Q103.88-17.43 103.86-15.98 103.83-14.54 103.83-12.14L103.83-12.14 103.23-12.14Q103.1-13.34 102.89-14.18 102.69-15.03 102.32-15.68 101.96-16.33 101.28-16.85L101.28-16.85Q100.63-17.51 99.77-17.82 98.91-18.13 97.97-18.13L97.97-18.13Q96.56-18.13 95.57-17.39 94.58-16.65 93.97-15.37 93.36-14.09 93.07-12.49 92.79-10.89 92.79-9.17L92.79-9.17Q92.79-7.42 93.09-5.82 93.39-4.22 94.02-2.97 94.66-1.72 95.68-0.99 96.69-0.26 98.08-0.26L98.08-0.26Q98.93-0.26 99.81-0.59 100.68-0.91 101.31-1.54L101.31-1.54Q102.32-2.32 102.69-3.48 103.05-4.64 103.23-6.56L103.23-6.56 103.83-6.56Q103.83-4.09 103.86-2.57 103.88-1.04 103.94 0L103.94 0 103.34 0Q103.23-1.12 102.99-1.41 102.74-1.69 102.16-1.33L102.16-1.33Q101.2-0.65 100.12-0.14 99.04 0.36 97.35 0.36L97.35 0.36Q94.58 0.36 92.51-0.76 90.44-1.88 89.3-3.99 88.15-6.1 88.15-9.07L88.15-9.07Q88.15-11.98 89.34-14.17 90.52-16.36 92.59-17.58 94.66-18.81 97.37-18.81ZM114.49-18.44L114.49-18.44 114.49-17.92Q113.6-17.9 113.14-17.73 112.69-17.56 112.53-17.1 112.38-16.65 112.38-15.68L112.38-15.68 112.38-2.45Q112.38-1.64 112.49-1.25 112.61-0.86 112.96-0.73 113.31-0.6 114.02-0.6L114.02-0.6 115.29-0.6Q116.49-0.6 117.47-1.33 118.45-2.06 119.11-3.37 119.77-4.69 120.03-6.41L120.03-6.41 120.63-6.41Q120.56-5.52 120.56-4.12L120.56-4.12Q120.56-3.52 120.58-2.37 120.61-1.22 120.74 0L120.74 0Q119.41-0.05 117.74-0.07 116.08-0.08 114.77-0.08L114.77-0.08Q113.89-0.08 112.43-0.08 110.97-0.08 109.33-0.07 107.69-0.05 106.28 0L106.28 0 106.28-0.52Q107.11-0.57 107.53-0.73 107.95-0.89 108.09-1.35 108.23-1.82 108.23-2.76L108.23-2.76 108.23-15.68Q108.23-16.65 108.09-17.1 107.95-17.56 107.52-17.73 107.09-17.9 106.28-17.92L106.28-17.92 106.28-18.44Q106.93-18.42 108.04-18.39 109.15-18.36 110.4-18.36L110.4-18.36Q111.54-18.36 112.65-18.39 113.76-18.42 114.49-18.44ZM131.65-18.81L131.65-18.81Q134.41-18.81 136.48-17.69 138.56-16.57 139.7-14.47 140.85-12.37 140.85-9.38L140.85-9.38Q140.85-6.46 139.68-4.27 138.5-2.08 136.41-0.86 134.31 0.36 131.63 0.36L131.63 0.36Q128.87 0.36 126.79-0.76 124.72-1.88 123.58-3.99 122.43-6.1 122.43-9.07L122.43-9.07Q122.43-11.98 123.62-14.17 124.8-16.36 126.87-17.58 128.94-18.81 131.65-18.81ZM131.55-18.34L131.55-18.34Q130.09-18.34 129.01-17.17 127.93-15.99 127.34-13.94 126.76-11.88 126.76-9.17L126.76-9.17Q126.76-6.41 127.42-4.36 128.08-2.32 129.22-1.21 130.35-0.1 131.73-0.1L131.73-0.1Q133.19-0.1 134.27-1.28 135.35-2.45 135.94-4.52 136.52-6.59 136.52-9.27L136.52-9.27Q136.52-12.06 135.86-14.09 135.2-16.12 134.06-17.23 132.93-18.34 131.55-18.34ZM159.32-18.44L159.32-18.44 159.32-17.92Q158.48-17.82 158.05-17.49 157.62-17.17 157.49-16.46 157.36-15.76 157.36-14.48L157.36-14.48 157.36-7.58Q157.36-5.89 157.13-4.48 156.89-3.07 156.3-2.06L156.3-2.06Q155.62-0.94 154.32-0.29 153.01 0.36 151.01 0.36L151.01 0.36Q149.81 0.36 148.56 0.09 147.31-0.18 146.32-0.94L146.32-0.94Q145.48-1.64 145.04-2.53 144.6-3.41 144.44-4.62 144.29-5.84 144.29-7.5L144.29-7.5 144.29-15.68Q144.29-16.65 144.14-17.1 144-17.56 143.58-17.73 143.17-17.9 142.33-17.92L142.33-17.92 142.33-18.44Q142.98-18.42 144.09-18.39 145.2-18.36 146.4-18.36L146.4-18.36Q147.59-18.36 148.7-18.39 149.81-18.42 150.54-18.44L150.54-18.44 150.54-17.92Q149.65-17.9 149.2-17.73 148.74-17.56 148.58-17.1 148.43-16.65 148.43-15.68L148.43-15.68 148.43-5.86Q148.43-4.12 148.74-2.93 149.05-1.75 149.85-1.15 150.64-0.55 152.02-0.55L152.02-0.55Q153.85-0.55 154.88-1.41 155.9-2.27 156.33-3.79 156.76-5.31 156.76-7.29L156.76-7.29 156.76-14.17Q156.76-15.6 156.58-16.37 156.4-17.14 155.87-17.48 155.33-17.82 154.24-17.92L154.24-17.92 154.24-18.44Q154.73-18.42 155.54-18.39 156.35-18.36 157.05-18.36L157.05-18.36Q157.68-18.36 158.29-18.39 158.9-18.42 159.32-18.44ZM168.72-18.44L168.72-18.44Q173.85-18.44 176.35-16.11 178.85-13.78 178.85-9.43L178.85-9.43Q178.85-6.59 177.63-4.47 176.41-2.34 174.07-1.17 171.74 0 168.49 0L168.49 0Q167.86 0 166.7-0.04 165.54-0.08 164.68-0.08L164.68-0.08Q163.54-0.08 162.43-0.07 161.32-0.05 160.67 0L160.67 0 160.67-0.52Q161.51-0.57 161.92-0.73 162.34-0.89 162.48-1.35 162.63-1.82 162.63-2.76L162.63-2.76 162.63-15.68Q162.63-16.65 162.48-17.1 162.34-17.56 161.91-17.73 161.48-17.9 160.67-17.92L160.67-17.92 160.67-18.44Q161.32-18.42 162.43-18.38 163.54-18.34 164.63-18.36L164.63-18.36Q165.57-18.39 166.75-18.42 167.94-18.44 168.72-18.44ZM168.69-17.97L168.69-17.97Q167.5-17.97 167.13-17.53 166.77-17.09 166.77-15.73L166.77-15.73 166.77-2.71Q166.77-1.35 167.14-0.91 167.52-0.47 168.72-0.47L168.72-0.47Q170.91-0.47 172.17-1.5 173.44-2.53 173.98-4.51 174.53-6.49 174.53-9.33L174.53-9.33Q174.53-13.7 173.18-15.84 171.82-17.97 168.69-17.97Z" transform="translate(0.3100000023841858, 18.809999465942383)"></path></g> <!----> <!----> <!----> <!----> <!----> <!----> <!----></g></g> <!----></g></g><defs v-gra="od"></defs></svg>